<?xml version="1.0" encoding="UTF-8"?>
<svg version="1.1" xmlns="http://www.w3.org/2000/svg" width="200" height="170">
<path d="M0 0 C0.76469101 -0.00700928 1.52938202 -0.01401855 2.31724548 -0.02124023 C4.84142521 -0.03882538 7.36448103 -0.02719636 9.88867188 -0.01367188 C11.64457413 -0.01636666 13.40047493 -0.02024896 15.15637207 -0.02526855 C18.83502419 -0.03116428 22.51328761 -0.02259843 26.19189453 -0.00390625 C30.90663848 0.01888356 35.62047166 0.00576085 40.33518219 -0.01819611 C43.96062072 -0.0326522 47.58584341 -0.02804901 51.21128845 -0.01768494 C52.94962166 -0.01501712 54.68797448 -0.01828937 56.42628479 -0.02760315 C58.85633221 -0.03776594 61.28490607 -0.02227319 63.71484375 0 C64.79190834 -0.01214539 64.79190834 -0.01214539 65.89073181 -0.02453613 C69.27894387 0.03298128 71.07258111 0.30187313 73.80670166 2.37237549 C75.88253393 5.24399656 75.81706373 7.0758434 75.74804688 10.59570312 C75.73515625 11.75585938 75.72226563 12.91601562 75.70898438 14.11132812 C75.67546875 15.31789063 75.64195313 16.52445313 75.60742188 17.76757812 C75.589375 18.98960938 75.57132812 20.21164063 75.55273438 21.47070312 C75.50560288 24.48711891 75.439816 27.50195304 75.35742188 30.51757812 C73.87242188 31.01257812 73.87242188 31.01257812 72.35742188 31.51757812 C71.36742188 30.85757813 70.37742187 30.19757812 69.35742188 29.51757812 C69.35742188 21.92757812 69.35742188 14.33757813 69.35742188 6.51757812 C45.26742187 6.51757812 21.17742187 6.51757812 -3.64257812 6.51757812 C-3.64257812 14.10757813 -3.64257812 21.69757812 -3.64257812 29.51757812 C-0.34257813 29.18757813 2.95742188 28.85757813 6.35742188 28.51757812 C8.11535632 28.43940837 9.87509589 28.38730614 11.63476562 28.38476562 C12.54806641 28.38283203 13.46136719 28.38089844 14.40234375 28.37890625 C15.35689453 28.38341797 16.31144531 28.38792969 17.29492188 28.39257812 C18.81375977 28.39547852 18.81375977 28.39547852 20.36328125 28.3984375 C32.7032484 28.46603318 45.03047761 28.97813084 57.35742188 29.51757812 C57.35742188 29.84757812 57.35742188 30.17757812 57.35742188 30.51757812 C56.58290176 30.51535751 55.80838165 30.5131369 55.01039124 30.510849 C47.72621166 30.49084678 40.44204532 30.47560435 33.1578455 30.46576595 C29.4125915 30.46053798 25.66736012 30.45344191 21.92211914 30.44213867 C18.310605 30.43130672 14.69911267 30.42530064 11.08758354 30.42270088 C9.70681858 30.42084719 8.32605487 30.41722763 6.94529915 30.41184807 C5.01766235 30.40463366 3.09000381 30.40417004 1.16235352 30.40405273 C0.06315079 30.40183212 -1.03605194 30.39961151 -2.16856384 30.39732361 C-4.58609283 30.2371118 -4.58609283 30.2371118 -5.64257812 31.51757812 C15.47742188 31.51757812 36.59742188 31.51757812 58.35742188 31.51757812 C58.85242188 33.99257812 58.85242188 33.99257812 59.35742188 36.51757812 C58.35742188 37.51757812 58.35742188 37.51757812 55.80747986 37.63783264 C54.10538109 37.63450172 54.10538109 37.63450172 52.36889648 37.63110352 C51.08764389 37.63102798 49.8063913 37.63095245 48.48631287 37.63087463 C47.0774634 37.62576722 45.66861432 37.62055121 44.25976562 37.61523438 C42.82629953 37.61337015 41.3928328 37.61194627 39.95936584 37.61094666 C36.17982231 37.60712185 32.40031698 37.59729189 28.62078857 37.58624268 C24.76672889 37.57602775 20.91266306 37.57144886 17.05859375 37.56640625 C9.49151699 37.55566958 1.92447965 37.53807309 -5.64257812 37.51757812 C-5.64257812 46.09757812 -5.64257812 54.67757812 -5.64257812 63.51757812 C9.20742188 63.51757812 24.05742188 63.51757812 39.35742188 63.51757812 C39.68742187 64.83757812 40.01742187 66.15757813 40.35742188 67.51757812 C39.35742188 68.51757812 39.35742188 68.51757812 37.52879333 68.63783264 C36.332994 68.63450172 36.332994 68.63450172 35.11303711 68.63110352 C34.2121788 68.63102798 33.3113205 68.63095245 32.38316345 68.63087463 C31.40400467 68.62571335 30.42484589 68.62055206 29.41601562 68.61523438 C28.41860855 68.61381943 27.42120148 68.61240448 26.39356995 68.61094666 C23.19399064 68.60532927 19.99448019 68.59277383 16.79492188 68.58007812 C14.63151142 68.57506536 12.46809988 68.57050207 10.3046875 68.56640625 C4.98888414 68.55620317 -0.32676952 68.5366312 -5.64257812 68.51757812 C-5.64257812 77.09757812 -5.64257812 85.67757812 -5.64257812 94.51757812 C11.51742187 94.51757812 28.67742187 94.51757812 46.35742188 94.51757812 C46.68742187 96.16757813 47.01742187 97.81757812 47.35742188 99.51757812 C44.71283809 100.83987002 42.67980886 100.61435007 39.73242188 100.58007812 C38.72953125 100.57105469 37.72664063 100.56203125 36.69335938 100.55273438 C35.9225 100.54113281 35.15164062 100.52953125 34.35742188 100.51757812 C34.35742188 103.48757812 34.35742188 106.45757812 34.35742188 109.51757812 C35.32679687 109.49695313 36.29617187 109.47632813 37.29492188 109.45507812 C40.35742188 109.51757812 40.35742188 109.51757812 41.35742188 110.51757812 C41.35742188 112.16757813 41.35742188 113.81757813 41.35742188 115.51757812 C52.24742188 115.51757812 63.13742188 115.51757812 74.35742188 115.51757812 C74.68742187 116.50757813 75.01742187 117.49757813 75.35742188 118.51757812 C75.02742188 119.17757812 74.69742188 119.83757812 74.35742188 120.51757812 C63.46742187 120.51757812 52.57742187 120.51757812 41.35742188 120.51757812 C41.35742188 122.16757813 41.35742188 123.81757813 41.35742188 125.51757812 C39.47189658 127.40310342 36.77973356 126.65004502 34.27539062 126.65429688 C33.47746094 126.65042969 32.67953125 126.6465625 31.85742188 126.64257812 C30.66052734 126.64837891 30.66052734 126.64837891 29.43945312 126.65429688 C23.48402955 126.6441858 23.48402955 126.6441858 22.35742188 125.51757812 C22.35742188 123.86757812 22.35742188 122.21757812 22.35742188 120.51757812 C11.46742187 120.51757812 0.57742187 120.51757812 -10.64257812 120.51757812 C-10.97257812 119.52757812 -11.30257812 118.53757812 -11.64257812 117.51757812 C-11.14757813 116.52757812 -11.14757813 116.52757812 -10.64257812 115.51757812 C0.24742188 115.51757812 11.13742188 115.51757812 22.35742188 115.51757812 C22.35742188 113.86757812 22.35742188 112.21757812 22.35742188 110.51757812 C23.35742188 109.51757812 23.35742188 109.51757812 26.41992188 109.45507812 C27.38929687 109.47570312 28.35867187 109.49632812 29.35742188 109.51757812 C29.35742188 106.54757813 29.35742188 103.57757813 29.35742188 100.51757812 C28.29305908 100.54376221 27.22869629 100.56994629 26.13208008 100.59692383 C22.17200861 100.68762588 18.21202837 100.74489902 14.2512207 100.79223633 C12.53914943 100.81733526 10.82718484 100.85142242 9.11547852 100.89477539 C6.65028542 100.95563552 4.18651202 100.98383245 1.72070312 101.00585938 C0.57822868 101.04456902 0.57822868 101.04456902 -0.58732605 101.08406067 C-4.29166016 101.08600267 -6.33345406 100.74426725 -9.34515381 98.53570557 C-12.44015142 94.4698057 -12.34407028 91.6364978 -12.27368164 86.65991211 C-12.28083694 85.77803223 -12.28799225 84.89615234 -12.29536438 83.98754883 C-12.3122425 81.07905934 -12.29285571 78.17211299 -12.27148438 75.26367188 C-12.27231308 73.24015678 -12.27477252 71.21664176 -12.27879333 69.19313049 C-12.28165063 64.95545147 -12.26695519 60.7183012 -12.23950195 56.48071289 C-12.20539772 51.04744994 -12.21144538 45.6151311 -12.23016453 40.18182278 C-12.24072921 36.00478741 -12.23180186 31.82797201 -12.21677971 27.65095711 C-12.21159501 25.64747839 -12.21208318 23.64397673 -12.21832466 21.64050102 C-12.22377126 18.84178062 -12.20342056 16.04441559 -12.17602539 13.24584961 C-12.18581421 12.00282829 -12.18581421 12.00282829 -12.19580078 10.73469543 C-12.1387586 7.3099522 -11.90691881 4.94461513 -10.0868988 2.00440979 C-6.75259031 -0.02378377 -3.78975399 -0.04273469 0 0 Z M27.35742188 115.51757812 C27.35742188 117.16757813 27.35742188 118.81757813 27.35742188 120.51757812 C30.32742187 120.51757812 33.29742187 120.51757812 36.35742188 120.51757812 C36.35742188 118.86757812 36.35742188 117.21757812 36.35742188 115.51757812 C33.38742188 115.51757812 30.41742188 115.51757812 27.35742188 115.51757812 Z " fill="#000000" transform="translate(43.642578125,20.482421875)"/>
<path d="M0 0 C1.58206057 0.00667536 3.16410534 0.0186375 4.74609375 0.03515625 C5.55240234 0.03966797 6.35871094 0.04417969 7.18945312 0.04882812 C9.18753131 0.06065107 11.18557158 0.07858711 13.18359375 0.09765625 C14.86970223 3.99429277 15.38193512 6.8333169 15.18359375 11.09765625 C17.84565452 12.05917205 17.84565452 12.05917205 21.18359375 12.09765625 C23.76451602 10.71704314 25.96314473 8.99620585 28.18359375 7.09765625 C31.74298731 8.62778636 34.2119076 10.73391916 36.99609375 13.41015625 C38.21232422 14.54904297 38.21232422 14.54904297 39.453125 15.7109375 C41.18359375 18.09765625 41.18359375 18.09765625 41.046875 20.703125 C40.18359375 23.09765625 40.18359375 23.09765625 38.55859375 26.09765625 C37.03927978 29.41252308 37.08362141 30.69774174 38.18359375 34.09765625 C39.27671875 34.07703125 40.36984375 34.05640625 41.49609375 34.03515625 C45.18359375 34.09765625 45.18359375 34.09765625 48.18359375 35.09765625 C49.69304838 38.11656551 49.49008196 41.22479131 49.55859375 44.53515625 C49.61466797 45.55706055 49.61466797 45.55706055 49.671875 46.59960938 C49.70703125 48.59375 49.70703125 48.59375 49.18359375 52.09765625 C46.02775777 54.82949386 44.7611634 55.13748864 40.55859375 54.84765625 C37.18359375 54.09765625 37.18359375 54.09765625 34.18359375 53.09765625 C34.51359375 52.10765625 34.84359375 51.11765625 35.18359375 50.09765625 C37.82359375 49.76765625 40.46359375 49.43765625 43.18359375 49.09765625 C43.18359375 46.12765625 43.18359375 43.15765625 43.18359375 40.09765625 C41.92546875 40.03578125 40.66734375 39.97390625 39.37109375 39.91015625 C35.44986183 39.42605354 35.44986183 39.42605354 33.30859375 36.78515625 C32.75171875 35.45484375 32.75171875 35.45484375 32.18359375 34.09765625 C31.77109375 33.43765625 31.35859375 32.77765625 30.93359375 32.09765625 C29.90809737 29.36299922 30.28773844 27.85413413 31.18359375 25.09765625 C32.74609375 22.78515625 32.74609375 22.78515625 34.18359375 21.09765625 C33.08607145 18.10441362 32.50676483 17.25154724 29.55859375 15.84765625 C28.77484375 15.60015625 27.99109375 15.35265625 27.18359375 15.09765625 C26.54421875 15.81953125 25.90484375 16.54140625 25.24609375 17.28515625 C22.18359375 19.09765625 22.18359375 19.09765625 19.953125 18.765625 C16.31693272 17.56146997 13.38438724 16.23151857 10.18359375 14.09765625 C9.05859375 11.09765625 9.05859375 11.09765625 8.18359375 8.09765625 C7.68859375 7.10765625 7.68859375 7.10765625 7.18359375 6.09765625 C3.40231795 5.71818293 3.40231795 5.71818293 1.55859375 7.22265625 C-0.02544141 9.1258014 -0.02544141 9.1258014 -0.50390625 12.03515625 C-2.18739245 15.96329071 -4.02021323 16.72497712 -7.74609375 18.53125 C-10.19989865 19.20257398 -11.45425917 18.98903251 -13.81640625 18.09765625 C-14.45578125 17.54078125 -15.09515625 16.98390625 -15.75390625 16.41015625 C-17.79548158 14.77206837 -17.79548158 14.77206837 -20.44140625 15.66015625 C-23.05109709 17.23970597 -23.7824556 18.27779084 -24.81640625 21.09765625 C-23.79546875 22.42796875 -23.79546875 22.42796875 -22.75390625 23.78515625 C-20.81640625 27.09765625 -20.81640625 27.09765625 -20.87890625 29.59765625 C-21.18828125 30.42265625 -21.49765625 31.24765625 -21.81640625 32.09765625 C-22.20828125 33.14953125 -22.60015625 34.20140625 -23.00390625 35.28515625 C-24.81640625 38.09765625 -24.81640625 38.09765625 -27.81640625 39.47265625 C-30.81640625 40.09765625 -30.81640625 40.09765625 -33.81640625 40.09765625 C-33.81640625 43.06765625 -33.81640625 46.03765625 -33.81640625 49.09765625 C-31.92921875 49.19046875 -31.92921875 49.19046875 -30.00390625 49.28515625 C-26.08267433 49.76925896 -26.08267433 49.76925896 -23.94140625 52.41015625 C-23.57015625 53.29703125 -23.19890625 54.18390625 -22.81640625 55.09765625 C-22.40390625 55.75765625 -21.99140625 56.41765625 -21.56640625 57.09765625 C-20.53717607 59.84227005 -20.93580039 61.32036083 -21.81640625 64.09765625 C-23.37890625 66.91015625 -23.37890625 66.91015625 -24.81640625 69.09765625 C-22.83640625 70.74765625 -20.85640625 72.39765625 -18.81640625 74.09765625 C-17.92953125 73.41703125 -17.04265625 72.73640625 -16.12890625 72.03515625 C-12.81640625 70.09765625 -12.81640625 70.09765625 -10.31640625 70.16015625 C-7.39265426 71.25656325 -4.60931642 72.70120116 -1.81640625 74.09765625 C-1.81640625 78.71765625 -1.81640625 83.33765625 -1.81640625 88.09765625 C-2.80640625 87.76765625 -3.79640625 87.43765625 -4.81640625 87.09765625 C-5.31140625 82.64265625 -5.31140625 82.64265625 -5.81640625 78.09765625 C-8.5299816 77.22631437 -8.5299816 77.22631437 -11.81640625 77.09765625 C-13.82895407 78.4119732 -15.82950894 79.7448751 -17.81640625 81.09765625 C-22.34288273 80.88954239 -24.54385976 78.96424326 -27.69140625 75.84765625 C-28.49320313 75.079375 -29.295 74.31109375 -30.12109375 73.51953125 C-31.81640625 71.09765625 -31.81640625 71.09765625 -31.67578125 68.48828125 C-30.81640625 66.09765625 -30.81640625 66.09765625 -29.19140625 63.09765625 C-27.67209228 59.78278942 -27.71643391 58.49757076 -28.81640625 55.09765625 C-29.44289063 55.04867187 -30.069375 54.9996875 -30.71484375 54.94921875 C-31.53210938 54.87445313 -32.349375 54.7996875 -33.19140625 54.72265625 C-34.00351563 54.65304688 -34.815625 54.5834375 -35.65234375 54.51171875 C-37.81640625 54.09765625 -37.81640625 54.09765625 -39.81640625 52.09765625 C-39.9884191 49.55536466 -40.04898242 47.13615629 -40.00390625 44.59765625 C-40.00326172 43.90800781 -40.00261719 43.21835938 -40.00195312 42.5078125 C-39.9569615 37.37876674 -39.9569615 37.37876674 -38.81640625 35.09765625 C-35.34315444 33.93990565 -32.45573177 34.02898973 -28.81640625 34.09765625 C-27.94506437 31.3840809 -27.94506437 31.3840809 -27.81640625 28.09765625 C-29.1307232 26.08510843 -30.4636251 24.08455356 -31.81640625 22.09765625 C-31.72710411 18.51366389 -30.87999129 17.17211052 -28.53125 14.421875 C-27.61472656 13.55175781 -26.69820312 12.68164062 -25.75390625 11.78515625 C-24.83480469 10.90214844 -23.91570312 10.01914062 -22.96875 9.109375 C-22.25847656 8.44550781 -21.54820313 7.78164063 -20.81640625 7.09765625 C-18.0265847 8.15955828 -15.73182568 9.15541859 -13.25390625 10.84765625 C-10.93059727 12.39670255 -10.93059727 12.39670255 -8.73828125 11.4609375 C-6.64465885 10.24660748 -6.64465885 10.24660748 -6.0234375 7.96875 C-5.89324219 7.16566406 -5.76304688 6.36257812 -5.62890625 5.53515625 C-4.70188532 0.12031436 -4.70188532 0.12031436 0 0 Z " fill="#000000" transform="translate(125.81640625,50.90234375)"/>
<path d="M0 0 C6.8074274 4.76848779 11.57115628 10.0287128 13.5234375 18.1875 C14.58774838 24.99908961 13.5481731 31.02274404 10.375 37.125 C4.97016723 43.6676923 -1.03661306 49.3318334 -9.7890625 50.3125 C-18.46600036 50.6639709 -24.09477708 48.55341498 -31.25 43.875 C-36.51354306 38.37220498 -39.54164447 31.49188415 -40.3125 23.9375 C-39.74782956 16.82265245 -37.35909495 8.93600851 -32 4 C-21.79612778 -2.94477591 -11.6051719 -5.97236901 0 0 Z M-29.3125 9.3125 C-33.17987091 15.47164626 -35.07510601 20.77625398 -34 28 C-31.86533379 35.40500031 -28.43626584 39.04248944 -22.125 43.25 C-14.81189127 45.8310972 -9.03574956 44.92852443 -2 42 C3.10364519 38.89343336 5.66984321 34.54708477 7.75 29 C8.52385591 22.80915271 8.26704979 17.39063215 5 12 C0.29883746 6.87145904 -3.51802643 3.42453476 -10.515625 2.76171875 C-18.30894158 2.55018587 -23.7077823 3.7077823 -29.3125 9.3125 Z " fill="#000000" transform="translate(166,109)"/>
<path d="M0 0 C5.80840676 3.27949805 10.12264904 7.87427012 12.4375 14.1875 C13.13938608 18.96032535 13.41751528 23.14450737 10.75 27.3125 C9.1 26.9825 7.45 26.6525 5.75 26.3125 C5.79640625 25.59964844 5.8428125 24.88679688 5.890625 24.15234375 C6.13872236 17.56890297 5.89317731 13.54598713 1.75 8.3125 C-2.9299366 4.93859222 -7.65924917 4.447149 -13.25 5.3125 C-17.1830444 6.65382728 -19.73245039 8.5946086 -22.1875 12 C-23.9326643 17.44080635 -23.85590681 22.061989 -22.375 27.5625 C-19.1896858 31.68467132 -14.9727612 33.30997836 -10.25 35.3125 C-10.58 36.9625 -10.91 38.6125 -11.25 40.3125 C-17.56670816 40.3125 -20.77922154 37.86863021 -25.29296875 33.5625 C-29.01023308 29.28875897 -30.03148139 25.35200704 -30.625 19.8125 C-29.86837592 12.75067521 -27.79015505 7.95076934 -22.25 3.3125 C-15.19585955 -1.76648113 -8.19550079 -3.85670625 0 0 Z " fill="#000000" transform="translate(139.25,75.6875)"/>
<path d="M0 0 C3.58402695 1.53248049 6.02850134 3.6674601 8.8125 6.375 C9.62332031 7.14585938 10.43414062 7.91671875 11.26953125 8.7109375 C13 11 13 11 12.76171875 13.2890625 C12.51035156 13.85367188 12.25898438 14.41828125 12 15 C7.25 14.25 7.25 14.25 5 12 C4.97421875 13.13179687 4.9484375 14.26359375 4.921875 15.4296875 C4.86560374 16.91149743 4.80825618 18.39326677 4.75 19.875 C4.72873047 20.99455078 4.72873047 20.99455078 4.70703125 22.13671875 C4.609375 24.3046875 4.609375 24.3046875 4 28 C2.078125 29.5703125 2.078125 29.5703125 0 30 C-0.66 29.67 -1.32 29.34 -2 29 C-2.33 23.06 -2.66 17.12 -3 11 C-4.32 12.32 -5.64 13.64 -7 15 C-9.25 14.75 -9.25 14.75 -11 14 C-10.59102482 9.1009995 -8.60793633 7.3004017 -4.9375 4.1875 C-3.55884766 3.00220703 -3.55884766 3.00220703 -2.15234375 1.79296875 C-1.44207031 1.20128906 -0.73179687 0.60960938 0 0 Z " fill="#000000" transform="translate(152,118)"/>
<path d="M0 0 C14.52 0 29.04 0 44 0 C44 0.33 44 0.66 44 1 C35.1388941 1.87363016 26.33621657 2.10889858 17.4375 2.125 C15.86742187 2.13176758 15.86742187 2.13176758 14.265625 2.13867188 C13.26917969 2.13673828 12.27273437 2.13480469 11.24609375 2.1328125 C10.35591553 2.13168457 9.4657373 2.13055664 8.54858398 2.12939453 C6 2 6 2 1 1 C1 8.26 1 15.52 1 23 C4.3 22.67 7.6 22.34 11 22 C12.88688024 21.92084482 14.77552436 21.86968982 16.6640625 21.8671875 C18.1190918 21.86428711 18.1190918 21.86428711 19.60351562 21.86132812 C20.60060547 21.86583984 21.59769531 21.87035156 22.625 21.875 C23.66591797 21.87693359 24.70683594 21.87886719 25.77929688 21.88085938 C34.21732904 21.92770841 42.5906103 22.30746202 51 23 C51 23.33 51 23.66 51 24 C34.17 24 17.34 24 0 24 C0 16.08 0 8.16 0 0 Z " fill="#000000" transform="translate(39,90)"/>
<path d="M0 0 C0.495 1.98 0.495 1.98 1 4 C-2.20827135 6.86411289 -4.25000113 7.37246186 -8.51538086 7.35644531 C-9.62010239 7.35944641 -10.72482391 7.36244751 -11.86302185 7.36553955 C-13.05162308 7.35319275 -14.2402243 7.34084595 -15.46484375 7.328125 C-16.69030411 7.32625183 -17.91576447 7.32437866 -19.17835999 7.32244873 C-21.76989461 7.31572634 -24.36141906 7.30180823 -26.95288086 7.28125 C-30.91855307 7.25014859 -34.88382738 7.24028342 -38.84960938 7.234375 C-41.36719234 7.22520257 -43.88477127 7.21482603 -46.40234375 7.203125 C-47.58892075 7.19887512 -48.77549774 7.19462524 -49.99803162 7.19024658 C-51.1059053 7.18063904 -52.21377899 7.17103149 -53.35522461 7.16113281 C-54.32689072 7.15430481 -55.29855682 7.14747681 -56.29966736 7.14044189 C-59 7 -59 7 -64 6 C-64 13.59 -64 21.18 -64 29 C-64.33 29 -64.66 29 -65 29 C-65 21.08 -65 13.16 -65 5 C-44.21 4.67 -23.42 4.34 -2 4 C-1.34 2.68 -0.68 1.36 0 0 Z " fill="#000000" transform="translate(104,54)"/>
<path d="M0 0 C0.33 0 0.66 0 1 0 C1 29.7 1 59.4 1 90 C0.67 90 0.34 90 0 90 C0 60.3 0 30.6 0 0 Z " fill="#000000" transform="translate(30,26)"/>
<path d="M0 0 C26.07 0 52.14 0 79 0 C79 0.33 79 0.66 79 1 C52.93 1 26.86 1 0 1 C0 0.67 0 0.34 0 0 Z " fill="#000000" transform="translate(36,19)"/>
<path d="M0 0 C2.31 0 4.62 0 7 0 C7 2.31 7 4.62 7 7 C4.69 7 2.38 7 0 7 C0 4.69 0 2.38 0 0 Z " fill="#000000" transform="translate(68,104)"/>
<path d="M0 0 C2.31 0 4.62 0 7 0 C7 2.31 7 4.62 7 7 C4.69 7 2.38 7 0 7 C0 4.69 0 2.38 0 0 Z " fill="#000000" transform="translate(56,104)"/>
<path d="M0 0 C2.31 0 4.62 0 7 0 C7 2.31 7 4.62 7 7 C4.69 7 2.38 7 0 7 C0 4.69 0 2.38 0 0 Z " fill="#000000" transform="translate(44,104)"/>
<path d="M0 0 C2.31 0 4.62 0 7 0 C7 2.31 7 4.62 7 7 C4.69 7 2.38 7 0 7 C0 4.69 0 2.38 0 0 Z " fill="#000000" transform="translate(68,93)"/>
<path d="M0 0 C2.31 0 4.62 0 7 0 C7 2.31 7 4.62 7 7 C4.69 7 2.38 7 0 7 C0 4.69 0 2.38 0 0 Z " fill="#000000" transform="translate(56,93)"/>
<path d="M0 0 C2.31 0 4.62 0 7 0 C7 2.31 7 4.62 7 7 C4.69 7 2.38 7 0 7 C0 4.69 0 2.38 0 0 Z " fill="#000000" transform="translate(44,93)"/>
<path d="M0 0 C2.31 0 4.62 0 7 0 C7 2.31 7 4.62 7 7 C4.69 7 2.38 7 0 7 C0 4.69 0 2.38 0 0 Z " fill="#000000" transform="translate(68,62)"/>
<path d="M0 0 C2.31 0 4.62 0 7 0 C7 2.31 7 4.62 7 7 C4.69 7 2.38 7 0 7 C0 4.69 0 2.38 0 0 Z " fill="#000000" transform="translate(56,62)"/>
<path d="M0 0 C2.31 0 4.62 0 7 0 C7 2.31 7 4.62 7 7 C4.69 7 2.38 7 0 7 C0 4.69 0 2.38 0 0 Z " fill="#000000" transform="translate(44,62)"/>
<path d="M0 0 C2.31 0 4.62 0 7 0 C7 2.31 7 4.62 7 7 C5.00045254 7.04254356 2.99958364 7.04080783 1 7 C0 6 0 6 -0.0625 2.9375 C-0.041875 1.968125 -0.02125 0.99875 0 0 Z " fill="#000000" transform="translate(44,73)"/>
<path d="M0 0 C2.31 0 4.62 0 7 0 C7.04254356 1.99954746 7.04080783 4.00041636 7 6 C6 7 6 7 3.5 7.125 C1 7 1 7 0 6 C-0.04080783 4.00041636 -0.04254356 1.99954746 0 0 Z " fill="#000000" transform="translate(68,73)"/>
<path d="M0 0 C2.31 0 4.62 0 7 0 C7.04254356 1.99954746 7.04080783 4.00041636 7 6 C6 7 6 7 3.5 7.125 C1 7 1 7 0 6 C-0.04080783 4.00041636 -0.04254356 1.99954746 0 0 Z " fill="#000000" transform="translate(56,73)"/>
<path d="M0 0 C11.22 0 22.44 0 34 0 C34 2.31 34 4.62 34 7 C32.35 7 30.7 7 29 7 C30.32 6.67 31.64 6.34 33 6 C33 4.35 33 2.7 33 1 C22.11 1 11.22 1 0 1 C0 0.67 0 0.34 0 0 Z " fill="#000000" transform="translate(38,122)"/>
<path d="M0 0 C2.31 0 4.62 0 7 0 C7 1.98 7 3.96 7 6 C4.69 6 2.38 6 0 6 C0 4.02 0 2.04 0 0 Z " fill="#000000" transform="translate(68,42)"/>
<path d="M0 0 C2.31 0 4.62 0 7 0 C7 1.98 7 3.96 7 6 C4.69 6 2.38 6 0 6 C0 4.02 0 2.04 0 0 Z " fill="#000000" transform="translate(56,42)"/>
<path d="M0 0 C2.31 0 4.62 0 7 0 C7 1.98 7 3.96 7 6 C4.69 6 2.38 6 0 6 C0 4.02 0 2.04 0 0 Z " fill="#000000" transform="translate(44,42)"/>
<path d="M0 0 C2.31 0 4.62 0 7 0 C7 1.98 7 3.96 7 6 C4.69 6 2.38 6 0 6 C0 4.02 0 2.04 0 0 Z " fill="#000000" transform="translate(68,31)"/>
<path d="M0 0 C2.31 0 4.62 0 7 0 C7 1.98 7 3.96 7 6 C4.69 6 2.38 6 0 6 C0 4.02 0 2.04 0 0 Z " fill="#000000" transform="translate(56,31)"/>
<path d="M0 0 C2.31 0 4.62 0 7 0 C7 1.98 7 3.96 7 6 C4.69 6 2.38 6 0 6 C0 4.02 0 2.04 0 0 Z " fill="#000000" transform="translate(44,31)"/>
<path d="M0 0 C10.23 0 20.46 0 31 0 C30.67 1.32 30.34 2.64 30 4 C30 3.01 30 2.02 30 1 C20.1 1 10.2 1 0 1 C0 0.67 0 0.34 0 0 Z " fill="#000000" transform="translate(34,142)"/>
<path d="M0 0 C10.23 0 20.46 0 31 0 C31 0.33 31 0.66 31 1 C20.77 1 10.54 1 0 1 C0 0.67 0 0.34 0 0 Z " fill="#000000" transform="translate(86,142)"/>
<path d="M0 0 C0.33 0 0.66 0 1 0 C1 8.25 1 16.5 1 25 C0.67 25 0.34 25 0 25 C0 16.75 0 8.5 0 0 Z " fill="#000000" transform="translate(120,25)"/>
<path d="M0 0 C0.33 0 0.66 0 1 0 C1 5.94 1 11.88 1 18 C0.67 18 0.34 18 0 18 C0 12.06 0 6.12 0 0 Z " fill="#000000" transform="translate(111,31)"/>
<path d="M0 0 C0.33 0 0.66 0 1 0 C1 5.28 1 10.56 1 16 C0.67 16 0.34 16 0 16 C-0.19389096 13.5211787 -0.38040123 11.04219069 -0.5625 8.5625 C-0.61857422 7.85544922 -0.67464844 7.14839844 -0.73242188 6.41992188 C-0.86190993 4.61572163 -0.93521608 2.80768048 -1 1 C-0.67 0.67 -0.34 0.34 0 0 Z " fill="#000000" transform="translate(148,130)"/>
<path d="M0 0 C5.61 0 11.22 0 17 0 C17 0.33 17 0.66 17 1 C11.39 1 5.78 1 0 1 C0 0.67 0 0.34 0 0 Z " fill="#000000" transform="translate(122,49)"/>
<path d="M0 0 C5.28 0 10.56 0 16 0 C16 0.33 16 0.66 16 1 C10.72 1 5.44 1 0 1 C0 0.67 0 0.34 0 0 Z " fill="#000000" transform="translate(68,148)"/>
<path d="M0 0 C2.31 0 4.62 0 7 0 C7 0.99 7 1.98 7 3 C4.69 3 2.38 3 0 3 C0 2.01 0 1.02 0 0 Z M1 1 C1 1.33 1 1.66 1 2 C2.65 2 4.3 2 6 2 C6 1.67 6 1.34 6 1 C4.35 1 2.7 1 1 1 Z " fill="#000001" transform="translate(72,137)"/>
<path d="M0 0 C0.66 0.66 1.32 1.32 2 2 C1.9765625 4.8203125 1.9765625 4.8203125 1.625 8.125 C1.51414063 9.22070312 1.40328125 10.31640625 1.2890625 11.4453125 C1.19367188 12.28835937 1.09828125 13.13140625 1 14 C0.67 14 0.34 14 0 14 C0 9.38 0 4.76 0 0 Z " fill="#000000" transform="translate(157,131)"/>
<path d="M0 0 C0.33 0 0.66 0 1 0 C1 4.95 1 9.9 1 15 C0.67 15 0.34 15 0 15 C0 10.05 0 5.1 0 0 Z " fill="#000000" transform="translate(176,88)"/>
<path d="M0 0 C0.33 0 0.66 0 1 0 C1 4.95 1 9.9 1 15 C0.67 15 0.34 15 0 15 C0 10.05 0 5.1 0 0 Z " fill="#000000" transform="translate(84,88)"/>
<path d="M0 0 C3.96 0 7.92 0 12 0 C12 0.33 12 0.66 12 1 C8.04 1 4.08 1 0 1 C0 0.67 0 0.34 0 0 Z " fill="#000000" transform="translate(147,160)"/>
<path d="M0 0 C0.33 0 0.66 0 1 0 C1.33 3.63 1.66 7.26 2 11 C-0.67927341 6.98108988 -0.15601248 4.75838077 0 0 Z " fill="#010000" transform="translate(124,129)"/>
<path d="M0 0 C1.65 0 3.3 0 5 0 C5 0.66 5 1.32 5 2 C3.02 2 1.04 2 -1 2 C-0.67 1.34 -0.34 0.68 0 0 Z " fill="#000000" transform="translate(69,70)"/>
<path d="M0 0 C1.65 0 3.3 0 5 0 C5.33 0.66 5.66 1.32 6 2 C4.02 2 2.04 2 0 2 C0 1.34 0 0.68 0 0 Z " fill="#000000" transform="translate(45,70)"/>
<path d="M0 0 C3.3 0 6.6 0 10 0 C10 0.33 10 0.66 10 1 C6.7 1 3.4 1 0 1 C0 0.67 0 0.34 0 0 Z " fill="#000000" transform="translate(79,122)"/>
<path d="M0 0 C3.3 0 6.6 0 10 0 C10 0.33 10 0.66 10 1 C6.7 1 3.4 1 0 1 C0 0.67 0 0.34 0 0 Z " fill="#000000" transform="translate(148,113)"/>
<path d="M0 0 C1.65 0 3.3 0 5 0 C5 0.66 5 1.32 5 2 C3.35 2 1.7 2 0 2 C0 1.34 0 0.68 0 0 Z " fill="#000000" transform="translate(69,101)"/>
<path d="M0 0 C1.65 0 3.3 0 5 0 C5 0.66 5 1.32 5 2 C3.35 2 1.7 2 0 2 C0 1.34 0 0.68 0 0 Z " fill="#000000" transform="translate(57,101)"/>
<path d="M0 0 C1.65 0 3.3 0 5 0 C5 0.66 5 1.32 5 2 C3.35 2 1.7 2 0 2 C0 1.34 0 0.68 0 0 Z " fill="#000000" transform="translate(45,101)"/>
<path d="M0 0 C1.65 0 3.3 0 5 0 C5 0.66 5 1.32 5 2 C3.35 2 1.7 2 0 2 C0 1.34 0 0.68 0 0 Z " fill="#000000" transform="translate(57,70)"/>
<path d="M0 0 C1.65 0 3.3 0 5 0 C5 0.66 5 1.32 5 2 C3.35 2 1.7 2 0 2 C0 1.34 0 0.68 0 0 Z " fill="#000000" transform="translate(69,28)"/>
<path d="M0 0 C1.65 0 3.3 0 5 0 C5 0.66 5 1.32 5 2 C3.35 2 1.7 2 0 2 C0 1.34 0 0.68 0 0 Z " fill="#000001" transform="translate(57,28)"/>
<path d="M0 0 C1.65 0 3.3 0 5 0 C5 0.66 5 1.32 5 2 C3.35 2 1.7 2 0 2 C0 1.34 0 0.68 0 0 Z " fill="#000000" transform="translate(45,28)"/>
<path d="M0 0 C2.31 0.33 4.62 0.66 7 1 C6.01 1.66 5.02 2.32 4 3 C2.68 2.01 1.36 1.02 0 0 Z " fill="#000000" transform="translate(162,106)"/>
<path d="M0 0 C2.97 0 5.94 0 9 0 C9 0.33 9 0.66 9 1 C6.03 1 3.06 1 0 1 C0 0.67 0 0.34 0 0 Z " fill="#000000" transform="translate(148,104)"/>
<path d="M0 0 C2.97 0 5.94 0 9 0 C9 0.33 9 0.66 9 1 C6.03 1 3.06 1 0 1 C0 0.67 0 0.34 0 0 Z " fill="#000000" transform="translate(126,81)"/>
<path d="M0 0 C0.33 0 0.66 0 1 0 C1 2.64 1 5.28 1 8 C0.67 8 0.34 8 0 8 C0 5.36 0 2.72 0 0 Z " fill="#020101" transform="translate(133,129)"/>
<path d="M0 0 C0.33 0 0.66 0 1 0 C1 2.64 1 5.28 1 8 C0.67 8 0.34 8 0 8 C0 5.36 0 2.72 0 0 Z " fill="#000000" transform="translate(144,91)"/>
<path d="M0 0 C0.33 0 0.66 0 1 0 C1 2.31 1 4.62 1 7 C0.67 7 0.34 7 0 7 C0 4.69 0 2.38 0 0 Z " fill="#000000" transform="translate(172,129)"/>
<path d="M0 0 C0.33 0 0.66 0 1 0 C1 2.31 1 4.62 1 7 C0.67 7 0.34 7 0 7 C0 4.69 0 2.38 0 0 Z " fill="#000000" transform="translate(116,92)"/>
<path d="M0 0 C0.33 0 0.66 0 1 0 C1 2.31 1 4.62 1 7 C0.67 7 0.34 7 0 7 C0 4.69 0 2.38 0 0 Z " fill="#000000" transform="translate(167,92)"/>
<path d="M0 0 C0.33 0 0.66 0 1 0 C1 2.31 1 4.62 1 7 C0.67 7 0.34 7 0 7 C0 4.69 0 2.38 0 0 Z " fill="#000000" transform="translate(93,92)"/>
<path d="M0 0 C2.31 0 4.62 0 7 0 C7 0.33 7 0.66 7 1 C4.69 1 2.38 1 0 1 C0 0.67 0 0.34 0 0 Z " fill="#000000" transform="translate(127,72)"/>
<path d="M0 0 C1.32 0.33 2.64 0.66 4 1 C2.68 1 1.36 1 0 1 C0 0.67 0 0.34 0 0 Z " fill="#010101" transform="translate(104,133)"/>
<path d="M0 0 C0.99 0.495 0.99 0.495 2 1 C1.34 2.32 0.68 3.64 0 5 C0 3.35 0 1.7 0 0 Z " fill="#000000" transform="translate(92,117)"/>
<path d="M0 0 C0.99 1.485 0.99 1.485 2 3 C1.34 3.66 0.68 4.32 0 5 C0 3.35 0 1.7 0 0 Z " fill="#000000" transform="translate(130,112)"/>
<path d="M0 0 C0.33 0 0.66 0 1 0 C1 1.98 1 3.96 1 6 C0.67 6 0.34 6 0 6 C0 4.02 0 2.04 0 0 Z " fill="#000000" transform="translate(66,94)"/>
<path d="M0 0 C0.33 0 0.66 0 1 0 C1 1.98 1 3.96 1 6 C0.67 6 0.34 6 0 6 C0 4.02 0 2.04 0 0 Z " fill="#000000" transform="translate(52,94)"/>
<path d="M0 0 C0.33 0 0.66 0 1 0 C1 1.98 1 3.96 1 6 C0.67 6 0.34 6 0 6 C0 4.02 0 2.04 0 0 Z " fill="#000000" transform="translate(66,73)"/>
<path d="M0 0 C0.33 0 0.66 0 1 0 C1 1.98 1 3.96 1 6 C0.67 6 0.34 6 0 6 C0 4.02 0 2.04 0 0 Z " fill="#000000" transform="translate(52,73)"/>
<path d="M0 0 C0.33 0 0.66 0 1 0 C1 1.65 1 3.3 1 5 C0.34 4.67 -0.32 4.34 -1 4 C-0.67 2.68 -0.34 1.36 0 0 Z " fill="#000000" transform="translate(118,56)"/>
<path d="M0 0 C0.33 0 0.66 0 1 0 C1 1.98 1 3.96 1 6 C0.67 6 0.34 6 0 6 C0 4.02 0 2.04 0 0 Z " fill="#000000" transform="translate(66,42)"/>
<path d="M0 0 C0.33 0 0.66 0 1 0 C1 1.98 1 3.96 1 6 C0.67 6 0.34 6 0 6 C0 4.02 0 2.04 0 0 Z " fill="#000000" transform="translate(52,42)"/>
<path d="M0 0 C0.33 0 0.66 0 1 0 C1 1.98 1 3.96 1 6 C0.67 6 0.34 6 0 6 C0 4.02 0 2.04 0 0 Z " fill="#000000" transform="translate(66,31)"/>
<path d="M0 0 C0.33 0 0.66 0 1 0 C1 1.98 1 3.96 1 6 C0.67 6 0.34 6 0 6 C0 4.02 0 2.04 0 0 Z " fill="#000000" transform="translate(64,31)"/>
<path d="M0 0 C0.33 0 0.66 0 1 0 C1 1.98 1 3.96 1 6 C0.67 6 0.34 6 0 6 C0 4.02 0 2.04 0 0 Z " fill="#000000" transform="translate(54,31)"/>
<path d="M0 0 C0.33 0 0.66 0 1 0 C1 1.98 1 3.96 1 6 C0.67 6 0.34 6 0 6 C0 4.02 0 2.04 0 0 Z " fill="#000000" transform="translate(52,31)"/>
<path d="M0 0 C0.33 1.32 0.66 2.64 1 4 C0.34 3.67 -0.32 3.34 -1 3 C-0.67 2.01 -0.34 1.02 0 0 Z " fill="#000001" transform="translate(64,131)"/>
<path d="M0 0 C1.65 0 3.3 0 5 0 C5 0.33 5 0.66 5 1 C3.35 1 1.7 1 0 1 C0 0.67 0 0.34 0 0 Z " fill="#000000" transform="translate(79,128)"/>
<path d="M0 0 C0.33 0 0.66 0 1 0 C1 1.65 1 3.3 1 5 C0.67 5 0.34 5 0 5 C0 3.35 0 1.7 0 0 Z " fill="#000000" transform="translate(66,105)"/>
<path d="M0 0 C0.33 0 0.66 0 1 0 C1 1.65 1 3.3 1 5 C0.67 5 0.34 5 0 5 C0 3.35 0 1.7 0 0 Z " fill="#000000" transform="translate(76,105)"/>
<path d="M0 0 C0.33 0 0.66 0 1 0 C1 1.65 1 3.3 1 5 C0.67 5 0.34 5 0 5 C0 3.35 0 1.7 0 0 Z " fill="#000000" transform="translate(64,105)"/>
<path d="M0 0 C0.33 0 0.66 0 1 0 C1 1.65 1 3.3 1 5 C0.67 5 0.34 5 0 5 C0 3.35 0 1.7 0 0 Z " fill="#000000" transform="translate(54,105)"/>
<path d="M0 0 C0.33 0 0.66 0 1 0 C1 1.65 1 3.3 1 5 C0.67 5 0.34 5 0 5 C0 3.35 0 1.7 0 0 Z " fill="#000000" transform="translate(52,105)"/>
<path d="M0 0 C0.33 0 0.66 0 1 0 C1 1.65 1 3.3 1 5 C0.67 5 0.34 5 0 5 C0 3.35 0 1.7 0 0 Z " fill="#000000" transform="translate(42,105)"/>
<path d="M0 0 C0.33 0 0.66 0 1 0 C1 1.65 1 3.3 1 5 C0.67 5 0.34 5 0 5 C0 3.35 0 1.7 0 0 Z " fill="#000000" transform="translate(76,94)"/>
<path d="M0 0 C0.33 0 0.66 0 1 0 C1 1.65 1 3.3 1 5 C0.67 5 0.34 5 0 5 C0 3.35 0 1.7 0 0 Z " fill="#000000" transform="translate(64,94)"/>
<path d="M0 0 C0.33 0 0.66 0 1 0 C1 1.65 1 3.3 1 5 C0.67 5 0.34 5 0 5 C0 3.35 0 1.7 0 0 Z " fill="#000000" transform="translate(54,94)"/>
<path d="M0 0 C0.33 0 0.66 0 1 0 C1 1.65 1 3.3 1 5 C0.67 5 0.34 5 0 5 C0 3.35 0 1.7 0 0 Z " fill="#000000" transform="translate(42,94)"/>
<path d="M0 0 C0.33 0 0.66 0 1 0 C1 1.65 1 3.3 1 5 C0.67 5 0.34 5 0 5 C0 3.35 0 1.7 0 0 Z " fill="#000000" transform="translate(153,93)"/>
<path d="M0 0 C0.33 0 0.66 0 1 0 C1 1.65 1 3.3 1 5 C0.67 5 0.34 5 0 5 C0 3.35 0 1.7 0 0 Z " fill="#000000" transform="translate(107,93)"/>
<path d="M0 0 C1.65 0 3.3 0 5 0 C5 0.33 5 0.66 5 1 C3.35 1 1.7 1 0 1 C0 0.67 0 0.34 0 0 Z " fill="#000000" transform="translate(161,91)"/>
<path d="M0 0 C1.65 0 3.3 0 5 0 C5 0.33 5 0.66 5 1 C3.35 1 1.7 1 0 1 C0 0.67 0 0.34 0 0 Z " fill="#000000" transform="translate(165,83)"/>
<path d="M0 0 C1.65 0 3.3 0 5 0 C5 0.33 5 0.66 5 1 C3.35 1 1.7 1 0 1 C0 0.67 0 0.34 0 0 Z " fill="#000000" transform="translate(91,83)"/>
<path d="M0 0 C0.33 0 0.66 0 1 0 C1 1.65 1 3.3 1 5 C0.67 5 0.34 5 0 5 C0 3.35 0 1.7 0 0 Z " fill="#000000" transform="translate(64,74)"/>
<path d="M0 0 C0.33 0 0.66 0 1 0 C1 1.65 1 3.3 1 5 C0.67 5 0.34 5 0 5 C0 3.35 0 1.7 0 0 Z " fill="#000000" transform="translate(54,74)"/>
<path d="M0 0 C0.33 0 0.66 0 1 0 C1 1.65 1 3.3 1 5 C0.67 5 0.34 5 0 5 C0 3.35 0 1.7 0 0 Z " fill="#000000" transform="translate(42,74)"/>
<path d="M0 0 C0.33 0 0.66 0 1 0 C1 1.65 1 3.3 1 5 C0.67 5 0.34 5 0 5 C0 3.35 0 1.7 0 0 Z " fill="#000000" transform="translate(76,63)"/>
<path d="M0 0 C0.33 0 0.66 0 1 0 C1 1.65 1 3.3 1 5 C0.67 5 0.34 5 0 5 C0 3.35 0 1.7 0 0 Z " fill="#000000" transform="translate(66,63)"/>
<path d="M0 0 C0.33 0 0.66 0 1 0 C1 1.65 1 3.3 1 5 C0.67 5 0.34 5 0 5 C0 3.35 0 1.7 0 0 Z " fill="#000000" transform="translate(64,63)"/>
<path d="M0 0 C0.33 0 0.66 0 1 0 C1 1.65 1 3.3 1 5 C0.67 5 0.34 5 0 5 C0 3.35 0 1.7 0 0 Z " fill="#000000" transform="translate(54,63)"/>
<path d="M0 0 C0.33 0 0.66 0 1 0 C1 1.65 1 3.3 1 5 C0.67 5 0.34 5 0 5 C0 3.35 0 1.7 0 0 Z " fill="#000000" transform="translate(52,63)"/>
<path d="M0 0 C0.33 0 0.66 0 1 0 C1 1.65 1 3.3 1 5 C0.67 5 0.34 5 0 5 C0 3.35 0 1.7 0 0 Z " fill="#000000" transform="translate(42,63)"/>
<path d="M0 0 C0.33 0 0.66 0 1 0 C1 1.65 1 3.3 1 5 C0.67 5 0.34 5 0 5 C0 3.35 0 1.7 0 0 Z " fill="#000000" transform="translate(134,60)"/>
<path d="M0 0 C0.33 0 0.66 0 1 0 C1 1.65 1 3.3 1 5 C0.67 5 0.34 5 0 5 C0 3.35 0 1.7 0 0 Z " fill="#000000" transform="translate(126,60)"/>
<path d="M0 0 C0.66 1.32 1.32 2.64 2 4 C1.34 4 0.68 4 0 4 C0 2.68 0 1.36 0 0 Z " fill="#000000" transform="translate(142,57)"/>
<path d="M0 0 C0.33 0 0.66 0 1 0 C1 1.65 1 3.3 1 5 C0.67 5 0.34 5 0 5 C0 3.35 0 1.7 0 0 Z " fill="#000000" transform="translate(64,42)"/>
<path d="M0 0 C0.33 0 0.66 0 1 0 C1 1.65 1 3.3 1 5 C0.67 5 0.34 5 0 5 C0 3.35 0 1.7 0 0 Z " fill="#000000" transform="translate(54,42)"/>
<path d="M0 0 C0.33 0 0.66 0 1 0 C1 1.65 1 3.3 1 5 C0.67 5 0.34 5 0 5 C0 3.35 0 1.7 0 0 Z " fill="#000000" transform="translate(42,42)"/>
<path d="M0 0 C0.33 0 0.66 0 1 0 C1 1.65 1 3.3 1 5 C0.67 5 0.34 5 0 5 C0 3.35 0 1.7 0 0 Z " fill="#000000" transform="translate(42,32)"/>
<path d="M0 0 C1 4 1 4 1 4 Z " fill="#000000" transform="translate(180,135)"/>
<path d="M0 0 C0.66 0 1.32 0 2 0 C1.67 0.99 1.34 1.98 1 3 C0.67 2.01 0.34 1.02 0 0 Z " fill="#000000" transform="translate(118,135)"/>
<path d="M0 0 C1 4 1 4 1 4 Z " fill="#000000" transform="translate(118,130)"/>
<path d="M0 0 C1 4 1 4 1 4 Z " fill="#000000" transform="translate(180,126)"/>
<path d="M0 0 C1 4 1 4 1 4 Z " fill="#000000" transform="translate(125,125)"/>
<path d="M0 0 C4 1 4 1 4 1 Z " fill="#000000" transform="translate(124,117)"/>
<path d="M0 0 C4 1 4 1 4 1 Z " fill="#000000" transform="translate(92,107)"/>
<path d="M0 0 C4 1 4 1 4 1 Z " fill="#000001" transform="translate(158,105)"/>
<path d="M0 0 C0.66 0.66 1.32 1.32 2 2 C1.01 1.67 0.02 1.34 -1 1 C-0.67 0.67 -0.34 0.34 0 0 Z " fill="#000000" transform="translate(146,104)"/>
<path d="M0 0 C4 1 4 1 4 1 Z " fill="#000000" transform="translate(161,99)"/>
<path d="M0 0 C4 1 4 1 4 1 Z " fill="#000000" transform="translate(96,99)"/>
<path d="M0 0 C4 1 4 1 4 1 Z " fill="#000000" transform="translate(96,91)"/>
<path d="M0 0 C4 1 4 1 4 1 Z " fill="#000000" transform="translate(69,81)"/>
<path d="M0 0 C1 4 1 4 1 4 Z " fill="#000000" transform="translate(76,74)"/>
<path d="M0 0 C1 4 1 4 1 4 Z " fill="#000000" transform="translate(168,69)"/>
<path d="M0 0 C1 4 1 4 1 4 Z " fill="#000000" transform="translate(92,69)"/>
<path d="M0 0 C1 4 1 4 1 4 Z " fill="#000000" transform="translate(76,43)"/>
<path d="M0 0 C1 4 1 4 1 4 Z " fill="#000000" transform="translate(76,32)"/>
<path d="M0 0 C3 1 3 1 3 1 Z " fill="#030301" transform="translate(159,159)"/>
<path d="M0 0 C3 1 3 1 3 1 Z " fill="#000000" transform="translate(156,151)"/>
<path d="M0 0 C3 1 3 1 3 1 Z " fill="#000000" transform="translate(147,151)"/>
<path d="M0 0 C0.33 0.66 0.66 1.32 1 2 C0.34 1.67 -0.32 1.34 -1 1 C-0.67 0.67 -0.34 0.34 0 0 Z " fill="#010103" transform="translate(167,145)"/>
<path d="" fill="#000000" transform="translate(0,0)"/>
<path d="M0 0 C3 1 3 1 3 1 Z " fill="#000000" transform="translate(142,134)"/>
<path d="M0 0 C3 1 3 1 3 1 Z " fill="#030303" transform="translate(33,134)"/>
<path d="" fill="#000000" transform="translate(0,0)"/>
<path d="" fill="#010000" transform="translate(0,0)"/>
<path d="" fill="#010001" transform="translate(0,0)"/>
<path d="M0 0 C3 1 3 1 3 1 Z " fill="#000000" transform="translate(113,119)"/>
<path d="M0 0 C3 1 3 1 3 1 Z " fill="#000000" transform="translate(159,114)"/>
<path d="M0 0 C3 1 3 1 3 1 Z " fill="#000000" transform="translate(144,114)"/>
<path d="" fill="#000000" transform="translate(0,0)"/>
<path d="M0 0 C3 1 3 1 3 1 Z " fill="#000000" transform="translate(170,106)"/>
<path d="" fill="#000000" transform="translate(0,0)"/>
<path d="" fill="#020101" transform="translate(0,0)"/>
<path d="" fill="#010000" transform="translate(0,0)"/>
<path d="" fill="#000000" transform="translate(0,0)"/>
<path d="" fill="#000000" transform="translate(0,0)"/>
<path d="M0 0 C0.99 0.495 0.99 0.495 2 1 C1.01 1.495 1.01 1.495 0 2 C0 1.34 0 0.68 0 0 Z " fill="#000000" transform="translate(120,84)"/>
<path d="M0 0 C3 1 3 1 3 1 Z " fill="#000000" transform="translate(57,81)"/>
<path d="M0 0 C3 1 3 1 3 1 Z " fill="#000000" transform="translate(135,73)"/>
<path d="M0 0 C3 1 3 1 3 1 Z " fill="#000000" transform="translate(123,73)"/>
<path d="M0 0 C0.66 0 1.32 0 2 0 C1.67 0.66 1.34 1.32 1 2 C0.67 1.34 0.34 0.68 0 0 Z " fill="#000000" transform="translate(158,70)"/>
<path d="M0 0 C0.99 0.495 0.99 0.495 2 1 C1.01 1.495 1.01 1.495 0 2 C0 1.34 0 0.68 0 0 Z " fill="#000000" transform="translate(95,65)"/>
<path d="M0 0 C0.66 0.66 1.32 1.32 2 2 C1.34 2 0.68 2 0 2 C0 1.34 0 0.68 0 0 Z " fill="#010101" transform="translate(159,59)"/>
<path d="" fill="#020202" transform="translate(0,0)"/>
<path d="" fill="#000000" transform="translate(0,0)"/>
<path d="M0 0 C3 1 3 1 3 1 Z " fill="#050600" transform="translate(69,40)"/>
<path d="M0 0 C2 1 2 1 2 1 Z " fill="#000000" transform="translate(144,159)"/>
<path d="M0 0 C2 1 2 1 2 1 Z " fill="#000000" transform="translate(162,158)"/>
<path d="M0 0 C2 1 2 1 2 1 Z " fill="#020205" transform="translate(142,158)"/>
<path d="M0 0 C2 1 2 1 2 1 Z " fill="#000000" transform="translate(166,156)"/>
<path d="M0 0 C2 1 2 1 2 1 Z " fill="#000000" transform="translate(160,150)"/>
<path d="M0 0 C2 1 2 1 2 1 Z " fill="#000000" transform="translate(144,150)"/>
<path d="M0 0 C2 1 2 1 2 1 Z " fill="#000000" transform="translate(162,149)"/>
<path d="M0 0 C2 1 2 1 2 1 Z " fill="#000000" transform="translate(142,149)"/>
<path d="" fill="#000000" transform="translate(0,0)"/>
<path d="" fill="#000000" transform="translate(0,0)"/>
<path d="" fill="#010101" transform="translate(0,0)"/>
<path d="" fill="#010101" transform="translate(0,0)"/>
<path d="" fill="#000000" transform="translate(0,0)"/>
<path d="" fill="#000000" transform="translate(0,0)"/>
<path d="" fill="#000000" transform="translate(0,0)"/>
<path d="" fill="#000000" transform="translate(0,0)"/>
<path d="" fill="#000000" transform="translate(0,0)"/>
<path d="" fill="#010101" transform="translate(0,0)"/>
<path d="" fill="#000000" transform="translate(0,0)"/>
<path d="" fill="#000000" transform="translate(0,0)"/>
<path d="M0 0 C2 1 2 1 2 1 Z " fill="#000000" transform="translate(161,134)"/>
<path d="M0 0 C2 1 2 1 2 1 Z " fill="#010104" transform="translate(116,134)"/>
<path d="" fill="#000000" transform="translate(0,0)"/>
<path d="" fill="#000000" transform="translate(0,0)"/>
<path d="M0 0 C2 1 2 1 2 1 Z " fill="#000000" transform="translate(111,130)"/>
<path d="M0 0 C2 1 2 1 2 1 Z " fill="#000000" transform="translate(116,129)"/>
<path d="" fill="#000000" transform="translate(0,0)"/>
<path d="" fill="#000000" transform="translate(0,0)"/>
<path d="" fill="#000000" transform="translate(0,0)"/>
<path d="M0 0 C2 1 2 1 2 1 Z " fill="#000000" transform="translate(107,123)"/>
<path d="" fill="#000000" transform="translate(0,0)"/>
<path d="" fill="#000000" transform="translate(0,0)"/>
<path d="M0 0 C2 1 2 1 2 1 Z " fill="#000000" transform="translate(121,122)"/>
<path d="" fill="#010101" transform="translate(0,0)"/>
<path d="M0 0 C2 1 2 1 2 1 Z " fill="#000000" transform="translate(118,121)"/>
<path d="M0 0 C2 1 2 1 2 1 Z " fill="#000000" transform="translate(35,121)"/>
<path d="M0 0 C2 1 2 1 2 1 Z " fill="#000000" transform="translate(116,120)"/>
<path d="" fill="#000000" transform="translate(0,0)"/>
<path d="" fill="#000000" transform="translate(0,0)"/>
<path d="" fill="#040404" transform="translate(0,0)"/>
<path d="M0 0 C2 1 2 1 2 1 Z " fill="#000000" transform="translate(121,116)"/>
<path d="M0 0 C2 1 2 1 2 1 Z " fill="#000000" transform="translate(142,115)"/>
<path d="" fill="#000000" transform="translate(0,0)"/>
<path d="" fill="#000000" transform="translate(0,0)"/>
<path d="" fill="#000000" transform="translate(0,0)"/>
<path d="M0 0 C2 1 2 1 2 1 Z " fill="#000000" transform="translate(138,108)"/>
<path d="M0 0 C2 1 2 1 2 1 Z " fill="#000000" transform="translate(124,108)"/>
<path d="M0 0 C2 1 2 1 2 1 Z " fill="#000000" transform="translate(122,107)"/>
<path d="" fill="#000000" transform="translate(0,0)"/>
<path d="M0 0 C2 1 2 1 2 1 Z " fill="#000000" transform="translate(142,106)"/>
<path d="M0 0 C2 1 2 1 2 1 Z " fill="#000000" transform="translate(88,106)"/>
<path d="" fill="#000000" transform="translate(0,0)"/>
<path d="" fill="#000000" transform="translate(0,0)"/>
<path d="" fill="#000000" transform="translate(0,0)"/>
<path d="" fill="#000000" transform="translate(0,0)"/>
<path d="" fill="#000000" transform="translate(0,0)"/>
<path d="" fill="#000000" transform="translate(0,0)"/>
<path d="" fill="#000000" transform="translate(0,0)"/>
<path d="" fill="#000000" transform="translate(0,0)"/>
<path d="" fill="#000000" transform="translate(0,0)"/>
<path d="" fill="#000000" transform="translate(0,0)"/>
<path d="" fill="#000000" transform="translate(0,0)"/>
<path d="" fill="#010102" transform="translate(0,0)"/>
<path d="" fill="#000000" transform="translate(0,0)"/>
<path d="" fill="#000000" transform="translate(0,0)"/>
<path d="" fill="#000000" transform="translate(0,0)"/>
<path d="M0 0 C2 1 2 1 2 1 Z " fill="#020202" transform="translate(139,84)"/>
<path d="" fill="#000000" transform="translate(0,0)"/>
<path d="M0 0 C2 1 2 1 2 1 Z " fill="#000000" transform="translate(88,84)"/>
<path d="M0 0 C2 1 2 1 2 1 Z " fill="#000000" transform="translate(136,82)"/>
<path d="M0 0 C2 1 2 1 2 1 Z " fill="#000000" transform="translate(124,82)"/>
<path d="" fill="#000000" transform="translate(0,0)"/>
<path d="" fill="#000000" transform="translate(0,0)"/>
<path d="" fill="#000000" transform="translate(0,0)"/>
<path d="" fill="#000000" transform="translate(0,0)"/>
<path d="" fill="#000001" transform="translate(0,0)"/>
<path d="" fill="#000000" transform="translate(0,0)"/>
<path d="" fill="#000000" transform="translate(0,0)"/>
<path d="M0 0 C2 1 2 1 2 1 Z " fill="#020202" transform="translate(143,77)"/>
<path d="M0 0 C2 1 2 1 2 1 Z " fill="#000000" transform="translate(116,77)"/>
<path d="M0 0 C2 1 2 1 2 1 Z " fill="#000000" transform="translate(140,75)"/>
<path d="M0 0 C2 1 2 1 2 1 Z " fill="#000000" transform="translate(119,75)"/>
<path d="" fill="#020202" transform="translate(0,0)"/>
<path d="M0 0 C2 1 2 1 2 1 Z " fill="#000000" transform="translate(138,74)"/>
<path d="M0 0 C2 1 2 1 2 1 Z " fill="#000000" transform="translate(121,74)"/>
<path d="" fill="#000000" transform="translate(0,0)"/>
<path d="M0 0 C2 1 2 1 2 1 Z " fill="#000000" transform="translate(146,71)"/>
<path d="M0 0 C2 1 2 1 2 1 Z " fill="#000000" transform="translate(144,70)"/>
<path d="M0 0 C2 1 2 1 2 1 Z " fill="#000000" transform="translate(142,69)"/>
<path d="M0 0 C2 1 2 1 2 1 Z " fill="#020203" transform="translate(110,69)"/>
<path d="M0 0 C2 1 2 1 2 1 Z " fill="#000000" transform="translate(139,68)"/>
<path d="M0 0 C2 1 2 1 2 1 Z " fill="#000000" transform="translate(120,68)"/>
<path d="M0 0 C2 1 2 1 2 1 Z " fill="#010101" transform="translate(106,66)"/>
<path d="M0 0 C2 1 2 1 2 1 Z " fill="#000000" transform="translate(144,61)"/>
<path d="M0 0 C2 1 2 1 2 1 Z " fill="#000000" transform="translate(115,61)"/>
<path d="M0 0 C2 1 2 1 2 1 Z " fill="#010102" transform="translate(148,60)"/>
<path d="M0 0 C2 1 2 1 2 1 Z " fill="#000000" transform="translate(107,57)"/>
<path d="" fill="#000000" transform="translate(0,0)"/>
<path d="" fill="#000000" transform="translate(0,0)"/>
<path d="" fill="#000000" transform="translate(0,0)"/>
<path d="" fill="#000000" transform="translate(0,0)"/>
<path d="" fill="#000000" transform="translate(0,0)"/>
<path d="" fill="#010204" transform="translate(0,0)"/>
<path d="" fill="#000000" transform="translate(0,0)"/>
<path d="" fill="#000000" transform="translate(0,0)"/>
<path d="" fill="#000000" transform="translate(0,0)"/>
<path d="" fill="#000000" transform="translate(0,0)"/>
<path d="" fill="#000000" transform="translate(0,0)"/>
<path d="" fill="#000000" transform="translate(0,0)"/>
<path d="" fill="#000000" transform="translate(0,0)"/>
<path d="" fill="#000000" transform="translate(0,0)"/>
<path d="" fill="#000002" transform="translate(0,0)"/>
<path d="" fill="#000000" transform="translate(0,0)"/>
<path d="" fill="#000000" transform="translate(0,0)"/>
<path d="" fill="#000000" transform="translate(0,0)"/>
<path d="" fill="#000000" transform="translate(0,0)"/>
<path d="" fill="#030303" transform="translate(0,0)"/>
<path d="" fill="#000000" transform="translate(0,0)"/>
<path d="" fill="#000000" transform="translate(0,0)"/>
<path d="" fill="#000000" transform="translate(0,0)"/>
<path d="" fill="#000000" transform="translate(0,0)"/>
<path d="" fill="#000000" transform="translate(0,0)"/>
<path d="" fill="#000000" transform="translate(0,0)"/>
<path d="" fill="#000000" transform="translate(0,0)"/>
<path d="" fill="#010101" transform="translate(0,0)"/>
<path d="" fill="#000000" transform="translate(0,0)"/>
<path d="" fill="#000000" transform="translate(0,0)"/>
<path d="" fill="#000000" transform="translate(0,0)"/>
<path d="" fill="#000000" transform="translate(0,0)"/>
<path d="" fill="#010101" transform="translate(0,0)"/>
<path d="" fill="#000000" transform="translate(0,0)"/>
<path d="" fill="#000000" transform="translate(0,0)"/>
<path d="" fill="#000000" transform="translate(0,0)"/>
<path d="" fill="#000000" transform="translate(0,0)"/>
<path d="" fill="#000000" transform="translate(0,0)"/>
<path d="" fill="#000000" transform="translate(0,0)"/>
<path d="" fill="#000000" transform="translate(0,0)"/>
<path d="" fill="#000000" transform="translate(0,0)"/>
<path d="" fill="#000000" transform="translate(0,0)"/>
<path d="" fill="#000000" transform="translate(0,0)"/>
<path d="" fill="#000000" transform="translate(0,0)"/>
<path d="" fill="#000000" transform="translate(0,0)"/>
<path d="" fill="#000000" transform="translate(0,0)"/>
<path d="" fill="#000000" transform="translate(0,0)"/>
<path d="" fill="#000000" transform="translate(0,0)"/>
<path d="" fill="#000000" transform="translate(0,0)"/>
<path d="" fill="#000000" transform="translate(0,0)"/>
<path d="" fill="#000000" transform="translate(0,0)"/>
<path d="" fill="#000000" transform="translate(0,0)"/>
<path d="" fill="#000000" transform="translate(0,0)"/>
<path d="" fill="#000000" transform="translate(0,0)"/>
<path d="" fill="#000000" transform="translate(0,0)"/>
<path d="" fill="#000000" transform="translate(0,0)"/>
<path d="" fill="#000000" transform="translate(0,0)"/>
<path d="" fill="#000000" transform="translate(0,0)"/>
<path d="" fill="#000000" transform="translate(0,0)"/>
<path d="" fill="#000000" transform="translate(0,0)"/>
<path d="" fill="#000000" transform="translate(0,0)"/>
<path d="" fill="#000000" transform="translate(0,0)"/>
<path d="" fill="#000000" transform="translate(0,0)"/>
<path d="" fill="#010101" transform="translate(0,0)"/>
<path d="" fill="#000000" transform="translate(0,0)"/>
<path d="" fill="#000000" transform="translate(0,0)"/>
<path d="" fill="#000000" transform="translate(0,0)"/>
<path d="" fill="#030303" transform="translate(0,0)"/>
<path d="" fill="#000000" transform="translate(0,0)"/>
<path d="" fill="#000000" transform="translate(0,0)"/>
<path d="" fill="#000000" transform="translate(0,0)"/>
<path d="" fill="#000000" transform="translate(0,0)"/>
<path d="" fill="#020202" transform="translate(0,0)"/>
<path d="" fill="#000000" transform="translate(0,0)"/>
<path d="" fill="#000000" transform="translate(0,0)"/>
<path d="" fill="#000000" transform="translate(0,0)"/>
<path d="" fill="#000000" transform="translate(0,0)"/>
<path d="" fill="#030303" transform="translate(0,0)"/>
<path d="" fill="#000000" transform="translate(0,0)"/>
<path d="" fill="#000000" transform="translate(0,0)"/>
<path d="" fill="#000000" transform="translate(0,0)"/>
<path d="" fill="#000000" transform="translate(0,0)"/>
<path d="" fill="#000000" transform="translate(0,0)"/>
<path d="" fill="#000000" transform="translate(0,0)"/>
<path d="" fill="#000000" transform="translate(0,0)"/>
<path d="" fill="#020202" transform="translate(0,0)"/>
<path d="" fill="#000000" transform="translate(0,0)"/>
<path d="" fill="#000000" transform="translate(0,0)"/>
<path d="" fill="#000000" transform="translate(0,0)"/>
<path d="" fill="#000000" transform="translate(0,0)"/>
<path d="" fill="#000000" transform="translate(0,0)"/>
<path d="" fill="#000000" transform="translate(0,0)"/>
<path d="" fill="#000000" transform="translate(0,0)"/>
<path d="" fill="#000000" transform="translate(0,0)"/>
<path d="" fill="#000000" transform="translate(0,0)"/>
<path d="" fill="#010101" transform="translate(0,0)"/>
<path d="" fill="#000000" transform="translate(0,0)"/>
<path d="" fill="#000000" transform="translate(0,0)"/>
<path d="" fill="#000000" transform="translate(0,0)"/>
<path d="" fill="#000000" transform="translate(0,0)"/>
<path d="" fill="#000000" transform="translate(0,0)"/>
<path d="" fill="#010101" transform="translate(0,0)"/>
<path d="" fill="#000000" transform="translate(0,0)"/>
<path d="" fill="#000000" transform="translate(0,0)"/>
<path d="" fill="#040404" transform="translate(0,0)"/>
<path d="" fill="#000000" transform="translate(0,0)"/>
<path d="" fill="#000000" transform="translate(0,0)"/>
<path d="" fill="#000000" transform="translate(0,0)"/>
<path d="" fill="#010101" transform="translate(0,0)"/>
<path d="" fill="#000000" transform="translate(0,0)"/>
<path d="" fill="#000000" transform="translate(0,0)"/>
<path d="" fill="#000000" transform="translate(0,0)"/>
<path d="" fill="#000000" transform="translate(0,0)"/>
<path d="" fill="#000000" transform="translate(0,0)"/>
<path d="" fill="#000000" transform="translate(0,0)"/>
<path d="" fill="#000000" transform="translate(0,0)"/>
<path d="" fill="#000000" transform="translate(0,0)"/>
<path d="" fill="#000000" transform="translate(0,0)"/>
<path d="" fill="#000000" transform="translate(0,0)"/>
<path d="" fill="#000000" transform="translate(0,0)"/>
<path d="" fill="#010101" transform="translate(0,0)"/>
<path d="" fill="#000000" transform="translate(0,0)"/>
<path d="" fill="#000101" transform="translate(0,0)"/>
<path d="" fill="#010101" transform="translate(0,0)"/>
<path d="" fill="#000000" transform="translate(0,0)"/>
<path d="" fill="#020303" transform="translate(0,0)"/>
<path d="" fill="#000000" transform="translate(0,0)"/>
<path d="" fill="#000000" transform="translate(0,0)"/>
<path d="" fill="#000000" transform="translate(0,0)"/>
<path d="" fill="#000000" transform="translate(0,0)"/>
<path d="" fill="#000000" transform="translate(0,0)"/>
<path d="" fill="#020202" transform="translate(0,0)"/>
<path d="" fill="#000000" transform="translate(0,0)"/>
<path d="" fill="#000000" transform="translate(0,0)"/>
<path d="" fill="#000000" transform="translate(0,0)"/>
<path d="" fill="#020202" transform="translate(0,0)"/>
<path d="" fill="#000000" transform="translate(0,0)"/>
<path d="" fill="#010101" transform="translate(0,0)"/>
<path d="" fill="#000000" transform="translate(0,0)"/>
<path d="" fill="#000000" transform="translate(0,0)"/>
<path d="" fill="#000000" transform="translate(0,0)"/>
<path d="" fill="#000000" transform="translate(0,0)"/>
<path d="" fill="#000000" transform="translate(0,0)"/>
<path d="" fill="#000000" transform="translate(0,0)"/>
<path d="" fill="#000000" transform="translate(0,0)"/>
<path d="" fill="#020202" transform="translate(0,0)"/>
<path d="" fill="#000000" transform="translate(0,0)"/>
<path d="" fill="#000000" transform="translate(0,0)"/>
<path d="" fill="#010101" transform="translate(0,0)"/>
<path d="" fill="#000000" transform="translate(0,0)"/>
<path d="" fill="#010101" transform="translate(0,0)"/>
<path d="" fill="#000000" transform="translate(0,0)"/>
<path d="" fill="#000000" transform="translate(0,0)"/>
<path d="" fill="#000000" transform="translate(0,0)"/>
<path d="" fill="#010101" transform="translate(0,0)"/>
<path d="" fill="#000000" transform="translate(0,0)"/>
<path d="" fill="#000000" transform="translate(0,0)"/>
<path d="" fill="#020202" transform="translate(0,0)"/>
<path d="" fill="#000000" transform="translate(0,0)"/>
<path d="" fill="#000000" transform="translate(0,0)"/>
<path d="" fill="#000000" transform="translate(0,0)"/>
<path d="" fill="#000000" transform="translate(0,0)"/>
<path d="" fill="#020001" transform="translate(0,0)"/>
<path d="" fill="#010101" transform="translate(0,0)"/>
<path d="" fill="#000000" transform="translate(0,0)"/>
<path d="" fill="#000000" transform="translate(0,0)"/>
<path d="" fill="#000000" transform="translate(0,0)"/>
<path d="" fill="#000000" transform="translate(0,0)"/>
<path d="" fill="#000000" transform="translate(0,0)"/>
<path d="" fill="#000000" transform="translate(0,0)"/>
<path d="" fill="#000000" transform="translate(0,0)"/>
<path d="" fill="#000000" transform="translate(0,0)"/>
<path d="" fill="#000000" transform="translate(0,0)"/>
<path d="" fill="#000000" transform="translate(0,0)"/>
<path d="" fill="#000000" transform="translate(0,0)"/>
<path d="" fill="#000001" transform="translate(0,0)"/>
<path d="" fill="#000000" transform="translate(0,0)"/>
<path d="" fill="#000000" transform="translate(0,0)"/>
<path d="" fill="#000000" transform="translate(0,0)"/>
<path d="" fill="#000000" transform="translate(0,0)"/>
<path d="" fill="#000000" transform="translate(0,0)"/>
<path d="" fill="#000000" transform="translate(0,0)"/>
<path d="" fill="#000000" transform="translate(0,0)"/>
<path d="" fill="#000000" transform="translate(0,0)"/>
<path d="" fill="#000000" transform="translate(0,0)"/>
<path d="" fill="#000000" transform="translate(0,0)"/>
<path d="" fill="#000000" transform="translate(0,0)"/>
<path d="" fill="#000000" transform="translate(0,0)"/>
<path d="" fill="#000000" transform="translate(0,0)"/>
<path d="" fill="#010101" transform="translate(0,0)"/>
<path d="" fill="#000000" transform="translate(0,0)"/>
<path d="" fill="#000000" transform="translate(0,0)"/>
<path d="" fill="#000000" transform="translate(0,0)"/>
<path d="" fill="#000000" transform="translate(0,0)"/>
<path d="" fill="#000000" transform="translate(0,0)"/>
<path d="" fill="#000000" transform="translate(0,0)"/>
<path d="" fill="#000000" transform="translate(0,0)"/>
<path d="" fill="#000000" transform="translate(0,0)"/>
<path d="" fill="#000000" transform="translate(0,0)"/>
<path d="" fill="#000000" transform="translate(0,0)"/>
<path d="" fill="#000000" transform="translate(0,0)"/>
<path d="" fill="#000000" transform="translate(0,0)"/>
<path d="" fill="#000000" transform="translate(0,0)"/>
<path d="" fill="#000000" transform="translate(0,0)"/>
<path d="" fill="#000001" transform="translate(0,0)"/>
<path d="" fill="#000000" transform="translate(0,0)"/>
<path d="" fill="#000000" transform="translate(0,0)"/>
<path d="" fill="#000000" transform="translate(0,0)"/>
<path d="" fill="#000000" transform="translate(0,0)"/>
<path d="" fill="#000000" transform="translate(0,0)"/>
<path d="" fill="#000000" transform="translate(0,0)"/>
<path d="" fill="#000000" transform="translate(0,0)"/>
<path d="" fill="#000000" transform="translate(0,0)"/>
<path d="" fill="#000000" transform="translate(0,0)"/>
<path d="" fill="#000000" transform="translate(0,0)"/>
<path d="" fill="#000000" transform="translate(0,0)"/>
<path d="" fill="#000000" transform="translate(0,0)"/>
<path d="" fill="#000000" transform="translate(0,0)"/>
<path d="" fill="#000000" transform="translate(0,0)"/>
<path d="" fill="#010204" transform="translate(0,0)"/>
<path d="" fill="#010101" transform="translate(0,0)"/>
<path d="" fill="#000000" transform="translate(0,0)"/>
<path d="" fill="#000000" transform="translate(0,0)"/>
<path d="" fill="#000000" transform="translate(0,0)"/>
<path d="" fill="#020202" transform="translate(0,0)"/>
<path d="" fill="#000000" transform="translate(0,0)"/>
<path d="" fill="#000001" transform="translate(0,0)"/>
<path d="" fill="#000000" transform="translate(0,0)"/>
<path d="" fill="#000000" transform="translate(0,0)"/>
<path d="" fill="#000000" transform="translate(0,0)"/>
<path d="" fill="#000000" transform="translate(0,0)"/>
<path d="" fill="#000000" transform="translate(0,0)"/>
<path d="" fill="#000000" transform="translate(0,0)"/>
<path d="" fill="#010101" transform="translate(0,0)"/>
<path d="" fill="#000000" transform="translate(0,0)"/>
<path d="" fill="#000000" transform="translate(0,0)"/>
<path d="" fill="#000000" transform="translate(0,0)"/>
<path d="" fill="#000000" transform="translate(0,0)"/>
<path d="" fill="#000000" transform="translate(0,0)"/>
<path d="" fill="#000000" transform="translate(0,0)"/>
<path d="" fill="#000000" transform="translate(0,0)"/>
<path d="" fill="#010101" transform="translate(0,0)"/>
<path d="" fill="#020002" transform="translate(0,0)"/>
<path d="" fill="#070305" transform="translate(0,0)"/>
<path d="" fill="#000000" transform="translate(0,0)"/>
<path d="" fill="#000000" transform="translate(0,0)"/>
<path d="" fill="#070507" transform="translate(0,0)"/>
<path d="" fill="#030303" transform="translate(0,0)"/>
<path d="" fill="#000000" transform="translate(0,0)"/>
</svg>
